<?xml version="1.0" encoding="UTF-8"?>
<svg xmlns="http://www.w3.org/2000/svg" width="32" height="24"><path d="m19 0 2 1v4l3.313 1.313C29.376 8.516 29.376 8.516 31 11c.438 2.438.438 2.438 0 5-2.918 4.085-6.185 5.037-11 6-6.482.514-12.5-.196-17.73-4.387C1 16 1 16 1 12.5 2 9 2 9 4 7.125c3.414-1.28 6.386-1.53 10.012-1.621 2.183-.307 2.183-.307 3.195-2.477L18 1zM5 10c-.97 2.584-.97 2.584-1 5l4 3 6-11c-3.808 0-5.793.978-9 3m20 0-.375 1.875C24 14 24 14 22 16l1 3 5-4c-.348-1.975-.348-1.975-1-4zm-14 9v1h10v-1z"/><style>path{fill:#000;}@media (prefers-color-scheme:dark){path{fill:#fff;}}</style></svg>
